<svg xmlns="http://www.w3.org/2000/svg" width="837" height="883" fill="none">
    <path fill="url(#a)" d="M541.803 565.637a284.9 284.9 0 0 1-132.326 132.05 285.107 285.107 0 0 1-185.736 21.643 284.992 284.992 0 0 1-159.175-98.079A284.724 284.724 0 0 1 .488 445.677 180.289 180.289 0 0 0 2.7 465.64a200.47 200.47 0 0 0 8.727 34.275A197.142 197.142 0 0 0 112.15 611.996a197.316 197.316 0 0 0 150.514 8.246 193.827 193.827 0 0 0 71.168-43.857l.43-.37.738-.735c.368-.371.799-.736 1.168-1.169a196.543 196.543 0 0 0 49.78-83.166l.369-1.168v-.98l87.945 42.136 2.46 1.168 65.76 31.508-1.05 2.211.371-.183Z"/>
    <path fill="url(#b)" d="M541.803 565.637a284.9 284.9 0 0 1-132.326 132.05 285.107 285.107 0 0 1-185.736 21.643 284.992 284.992 0 0 1-159.175-98.079A284.724 284.724 0 0 1 .488 445.677 180.289 180.289 0 0 0 2.7 465.64a200.47 200.47 0 0 0 8.727 34.275A197.142 197.142 0 0 0 112.15 611.996a197.316 197.316 0 0 0 150.514 8.246 193.827 193.827 0 0 0 71.168-43.857l.43-.37.738-.735c.368-.371.799-.736 1.168-1.169a196.543 196.543 0 0 0 49.78-83.166l.369-1.168v-.98l87.945 42.136 2.46 1.168 65.76 31.508-1.05 2.211.371-.183Z"/>
    <path fill="url(#c)" d="M541.632 565.637a284.858 284.858 0 0 1-132.301 132.107 285.092 285.092 0 0 1-185.754 21.66A284.909 284.909 0 0 1 64.398 621.29 284.636 284.636 0 0 1 .376 445.677a180.086 180.086 0 0 0 2.151 19.963 197.239 197.239 0 0 0 31.652 79.357 197.339 197.339 0 0 0 62.251 58.542 197.529 197.529 0 0 0 81.178 26.755 197.553 197.553 0 0 0 84.884-10.052 194.539 194.539 0 0 0 71.228-43.857l.369-.37.738-.735c.419-.359.81-.747 1.167-1.169a196.535 196.535 0 0 0 49.781-83.166c.151-.376.274-.769.369-1.168v-.98l87.945 42.136 2.456 1.168 65.822 31.508s-.923 1.783-1.043 2.211l.308-.183Z"/>
    <path fill="url(#d)" d="m406.728 191.309-1.106 2.273h-.983l-1.23-.307a194.675 194.675 0 0 0-98.589-1.326 194.602 194.602 0 0 0-86.581 47.147l-1.23 1.105-.737.738-.369.368a194.985 194.985 0 0 0-53.589 94.775 194.914 194.914 0 0 0 5.591 108.718 200.495 200.495 0 0 0 18.929 39.187c1.598 2.519 3.257 5.1 5.039 7.557 2.581 3.744 5.408 7.431 8.297 11.055a191.516 191.516 0 0 0 17.638 18.976 104.496 104.496 0 0 0 41.914 21.553 104.556 104.556 0 0 0 47.126.946 104.521 104.521 0 0 0 42.744-19.854 104.416 104.416 0 0 0 29.665-36.609l.553-1.105.553-1.106 2.212 1.043 1.599.741 2.212 1.106c.028.324.028.655 0 .98l-.369 1.168a197.262 197.262 0 0 1-49.78 83.166l-1.168 1.168-.737.735-.431.371a194.245 194.245 0 0 1-71.229 43.794 197.29 197.29 0 0 1-150.396-8.029A197.087 197.087 0 0 1 11.435 499.835a192.78 192.78 0 0 1-8.727-34.213 182.96 182.96 0 0 1-2.213-20.024 193.095 193.095 0 0 1 .43-27.947 200.564 200.564 0 0 1 9.034-44.9 284.099 284.099 0 0 1 65.603-122.167 284.31 284.31 0 0 1 115.636-76.596 281.486 281.486 0 0 1 215.715 11.24l1.106.491 1.106.553-2.397 5.037Z"/>
    <path fill="url(#e)" d="M262.669 620.219a193.843 193.843 0 0 0 71.168-43.857l.43-.37.737-.735c.369-.371.799-.735 1.168-1.168a196.518 196.518 0 0 0 49.781-83.167l.368-1.168a5.727 5.727 0 0 0 0-.98l15.672 7.494a214.987 214.987 0 0 1-53.775 89.862l-1.783 1.778-1.168 1.105a214.477 214.477 0 0 1-161.412 59.357 214.521 214.521 0 0 1-84.76-23.119 214.412 214.412 0 0 1-68.366-55.152A284.13 284.13 0 0 1 0 445.594c.37 6.71 1.108 13.395 2.213 20.024a196.985 196.985 0 0 0 31.593 79.407 197.142 197.142 0 0 0 143.475 85.286 197.184 197.184 0 0 0 84.896-10.155l.492.063Z" opacity=".61"/>
    <path fill="url(#f)" d="M52.98 419.266a163.678 163.678 0 0 0 2.028 18.427 165.826 165.826 0 0 0 4.732 20.761 171.393 171.393 0 0 0 8.543 22.975 158.979 158.979 0 0 0 8.235 15.659 165.27 165.27 0 0 0 18.069 25.12 172.602 172.602 0 0 0 67.048 47.812 172.775 172.775 0 0 0 81.58 11.317 172.652 172.652 0 0 0 77.544-27.747 172.514 172.514 0 0 0 55.855-60.496l.922-1.716 1.29-2.399c.25-.439.476-.889.677-1.35l.553-1.106.553-1.105 2.213 1.042 1.597.741 2.213 1.106c.028.325.028.655 0 .98l-.369 1.168a197.258 197.258 0 0 1-49.781 83.166l-1.167 1.168-.738.736-.43.37a194.24 194.24 0 0 1-71.229 43.794 197.243 197.243 0 0 1-150.547-7.921A197.086 197.086 0 0 1 11.435 499.852a192.77 192.77 0 0 1-8.727-34.212 182.933 182.933 0 0 1-2.213-20.024 193.097 193.097 0 0 1 .43-27.947 200.564 200.564 0 0 1 9.034-44.9 284.154 284.154 0 0 1 124.882-171.983 248.945 248.945 0 0 0-68.123 99.063A248.807 248.807 0 0 0 52.98 419.266Z"/>
    <path fill="url(#g)" d="M22.249 342.29a183.218 183.218 0 0 0-5.654 20.884 195.063 195.063 0 0 0-3.627 24.016 193.101 193.101 0 0 0-.368 27.947 181.224 181.224 0 0 0 2.15 20.024 197.287 197.287 0 0 0 31.688 79.32 197.418 197.418 0 0 0 62.253 58.508 197.449 197.449 0 0 0 81.16 26.743 197.445 197.445 0 0 0 84.864-10.035 195.126 195.126 0 0 0 71.229-43.794l.369-.365.737-.741c.431-.364.8-.797 1.168-1.162a196.555 196.555 0 0 0 37.735-52.582 196.48 196.48 0 0 1-49.658 82.859c-.368.433-.798.803-1.167 1.168l-.737.741-.431.365a194.54 194.54 0 0 1-71.229 43.856 197.242 197.242 0 0 1-150.487-8.246 197.087 197.087 0 0 1-100.69-112.081 194.692 194.692 0 0 1-8.726-34.273A180.164 180.164 0 0 1 .616 445.48a195.158 195.158 0 0 1 4.056-52.025 199.83 199.83 0 0 1 5.593-20.822 288.972 288.972 0 0 1 17.76-50.306c-2.15 6.573-4.117 13.206-5.776 19.963Z" opacity=".41"/>
    <path fill="url(#h)" d="M295.485 315.878a284.895 284.895 0 0 1 132.327-132.049 285.123 285.123 0 0 1 185.738-21.645 285.013 285.013 0 0 1 159.173 98.079 284.701 284.701 0 0 1 64.078 175.573 195.817 195.817 0 0 0-2.212-19.962 200.677 200.677 0 0 0-8.724-34.274 197.16 197.16 0 0 0-100.724-112.085 197.33 197.33 0 0 0-150.518-8.242 193.768 193.768 0 0 0-71.165 43.856l-.433.369-.736.736-1.169 1.167a196.569 196.569 0 0 0-49.779 83.167 8.457 8.457 0 0 0-.369 1.167v.982l-88.314-41.951-2.458-1.167-65.821-31.51 1.106-2.211Z"/>
    <path fill="url(#i)" d="M295.485 315.878a284.895 284.895 0 0 1 132.327-132.049 285.123 285.123 0 0 1 185.738-21.645 285.013 285.013 0 0 1 159.173 98.079 284.701 284.701 0 0 1 64.078 175.573 195.817 195.817 0 0 0-2.212-19.962 200.677 200.677 0 0 0-8.724-34.274 197.16 197.16 0 0 0-100.724-112.085 197.33 197.33 0 0 0-150.518-8.242 193.768 193.768 0 0 0-71.165 43.856l-.433.369-.736.736-1.169 1.167a196.569 196.569 0 0 0-49.779 83.167 8.457 8.457 0 0 0-.369 1.167v.982l-88.314-41.951-2.458-1.167-65.821-31.51 1.106-2.211Z"/>
    <path fill="url(#j)" d="M295.605 315.878a284.893 284.893 0 0 1 132.326-132.049 285.125 285.125 0 0 1 185.738-21.645 285.012 285.012 0 0 1 159.174 98.079 284.707 284.707 0 0 1 64.078 175.573 180.496 180.496 0 0 0-2.213-19.962 194.573 194.573 0 0 0-8.729-34.274 197.084 197.084 0 0 0-100.684-112.081 197.264 197.264 0 0 0-150.49-8.246 194.503 194.503 0 0 0-71.227 43.856l-.371.369-.798.736-1.106 1.167a196.512 196.512 0 0 0-49.781 83.167c0 .368 0 .798-.43 1.167v.982l-88.314-41.951-2.459-1.167-65.759-31.51 1.045-2.211Z"/>
    <path fill="url(#k)" d="m430.567 690.187 1.106-2.268.983.308h1.229a194.746 194.746 0 0 0 98.59 1.322 194.602 194.602 0 0 0 86.583-47.145l1.226-1.106.741-.678.365-.427a194.98 194.98 0 0 0 53.603-94.974 194.907 194.907 0 0 0-5.787-108.889 198.297 198.297 0 0 0-18.931-39.126 145.405 145.405 0 0 0-5.04-7.617c-2.577-3.746-5.405-7.431-8.296-11.056a192.095 192.095 0 0 0-17.636-18.979 105.515 105.515 0 0 0-102.206-18.427 104.465 104.465 0 0 0-59.243 52.455l-.553 1.106-.554 1.105-2.273-1.105-1.598-.737-2.213-1.106a5.762 5.762 0 0 1 0-.983l.369-1.228a196.534 196.534 0 0 1 49.78-83.105l1.169-1.167.736-.737c.159-.127.302-.271.433-.43a194.192 194.192 0 0 1 71.228-43.795 197.252 197.252 0 0 1 150.484 8.247 197.074 197.074 0 0 1 100.689 112.08 192.907 192.907 0 0 1 8.73 34.213 183.092 183.092 0 0 1 2.212 20.024c.53 9.314.388 18.654-.433 27.947a198.582 198.582 0 0 1-8.724 44.839 283.467 283.467 0 0 1-55.873 111.203 283.613 283.613 0 0 1-98.141 76.573 283.799 283.799 0 0 1-121.501 27.182 283.745 283.745 0 0 1-121.439-27.433l-1.106-.496-1.106-.552 2.397-5.038Z"/>
    <path fill="url(#l)" d="M574.623 261.271a195.49 195.49 0 0 0-71.171 43.856l-.427.369-.742.737-1.163 1.167a196.505 196.505 0 0 0-49.782 83.166 8.5 8.5 0 0 0-.369 1.167v.983l-15.672-7.555a214.963 214.963 0 0 1 53.775-89.862l1.785-1.719 1.163-1.106a211.611 211.611 0 0 1 77.374-47.664 215.23 215.23 0 0 1 129.057-4.028 215.125 215.125 0 0 1 108.113 70.549 278.04 278.04 0 0 1 14.009 34.212 284.1 284.1 0 0 1 16.222 90.353 195.24 195.24 0 0 0-2.212-19.963 199.982 199.982 0 0 0-8.724-34.274 197.16 197.16 0 0 0-100.724-112.085 197.315 197.315 0 0 0-150.512-8.241v-.062Z" opacity=".61"/>
    <path fill="url(#m)" d="M815.054 539.207a183.838 183.838 0 0 0 5.651-20.885 205.691 205.691 0 0 0 3.626-24.015c.798-9.294.924-18.634.371-27.947a183.094 183.094 0 0 0-2.213-20.024 192.872 192.872 0 0 0-8.729-34.212 196.924 196.924 0 0 0-54.077-80.939A197.116 197.116 0 0 0 673.437 286a197.22 197.22 0 0 0-97.366 1.599 197.1 197.1 0 0 0-84.712 47.993l-.371.429-.798.676-1.107 1.167a197.775 197.775 0 0 0-37.735 52.578 196.543 196.543 0 0 1 49.658-82.859c.371-.43.798-.799 1.169-1.167l.736-.737.427-.369a193.59 193.59 0 0 1 71.234-43.856 197.248 197.248 0 0 1 150.484 8.247 197.074 197.074 0 0 1 100.689 112.08 194.62 194.62 0 0 1 8.73 34.274 183.424 183.424 0 0 1 2.212 19.962 192.98 192.98 0 0 1-.433 27.947 200.144 200.144 0 0 1-9.277 44.96 280.163 280.163 0 0 1-17.762 50.245c2.213-6.57 4.18-13.203 5.839-19.962Z" opacity=".41"/>
    <path fill="url(#n)" d="M784.321 462.242a163.644 163.644 0 0 0-2.024-18.857 166.806 166.806 0 0 0-4.733-20.761 163.306 163.306 0 0 0-8.604-22.972 157.414 157.414 0 0 0-8.176-15.662 168.132 168.132 0 0 0-18.07-25.122 172.844 172.844 0 0 0-117.96-59.584 172.893 172.893 0 0 0-125.595 41.157 170.45 170.45 0 0 0-38.47 47.295l-.922 1.72-1.291 2.395-.737 1.352-.492 1.106-.553 1.105-2.212-.737-1.598-.737-2.274-1.106v-.983c.095-.417.218-.828.368-1.228a196.556 196.556 0 0 1 49.783-83.105l1.163-1.167.741-.737c.16-.127.303-.271.428-.43a194.492 194.492 0 0 1 71.171-43.794 197.242 197.242 0 0 1 166.107 16.563 197.022 197.022 0 0 1 93.858 137.976 184.33 184.33 0 0 1 2.213 20.024 192.84 192.84 0 0 1-.434 27.947 196.044 196.044 0 0 1-3.626 24.076 185.21 185.21 0 0 1-5.651 20.823 284.173 284.173 0 0 1-124.882 171.985 249.004 249.004 0 0 0 68.474-99.002 248.769 248.769 0 0 0 13.998-119.54Z"/>
    <defs>
        <linearGradient id="a" x1="48.907" x2="508.418" y1="627.65" y2="465.736" gradientUnits="userSpaceOnUse">
            <stop stop-color="#5729EA"/>
            <stop offset="1" stop-color="#4010BB"/>
        </linearGradient>
        <linearGradient id="b" x1="48.907" x2="508.418" y1="627.65" y2="465.736" gradientUnits="userSpaceOnUse">
            <stop stop-color="#759400"/>
            <stop offset="1" stop-color="#00E920"/>
        </linearGradient>
        <linearGradient id="c" x1="48.805" x2="508.327" y1="627.61" y2="465.723" gradientUnits="userSpaceOnUse">
            <stop stop-color="#3BE900"/>
            <stop offset="1" stop-color="#095A1B"/>
        </linearGradient>
        <linearGradient id="d" x1="95.155" x2="294.346" y1="642.546" y2="226.567" gradientUnits="userSpaceOnUse">
            <stop stop-color="#116A00"/>
            <stop offset="1" stop-color="#1CFF00"/>
        </linearGradient>
        <linearGradient id="e" x1=".492" x2="402.607" y1="547.248" y2="547.248" gradientUnits="userSpaceOnUse">
            <stop stop-color="#15BF00" stop-opacity="0"/>
            <stop offset="1" stop-color="#4CAA00"/>
        </linearGradient>
        <linearGradient id="f" x1="380.293" x2="-154.351" y1="523.61" y2="279.455" gradientUnits="userSpaceOnUse">
            <stop stop-color="#299400" stop-opacity=".93"/>
            <stop offset=".01" stop-color="#279601" stop-opacity=".9"/>
            <stop offset=".17" stop-color="#1BAF13" stop-opacity=".63"/>
            <stop offset=".32" stop-color="#11C421" stop-opacity=".4"/>
            <stop offset=".48" stop-color="#09D42C" stop-opacity=".22"/>
            <stop offset=".64" stop-color="#04DF34" stop-opacity=".1"/>
            <stop offset=".81" stop-color="#01E639" stop-opacity=".02"/>
            <stop offset="1" stop-color="#00E93B" stop-opacity="0"/>
        </linearGradient>
        <linearGradient id="g" x1="17.332" x2="353.099" y1="516.281" y2="397.975" gradientUnits="userSpaceOnUse">
            <stop stop-color="#1AE800" stop-opacity=".02"/>
            <stop offset=".07" stop-color="#27D900" stop-opacity=".25"/>
            <stop offset=".14" stop-color="#32CC00" stop-opacity=".45"/>
            <stop offset=".22" stop-color="#3CC100" stop-opacity=".62"/>
            <stop offset=".31" stop-color="#43B900" stop-opacity=".76"/>
            <stop offset=".41" stop-color="#49B200" stop-opacity=".87"/>
            <stop offset=".52" stop-color="#4DAD00" stop-opacity=".94"/>
            <stop offset=".67" stop-color="#50AA00" stop-opacity=".99"/>
            <stop offset="1" stop-color="#51AA00"/>
        </linearGradient>
        <linearGradient id="h" x1="788.363" x2="328.851" y1="253.869" y2="415.78" gradientUnits="userSpaceOnUse">
            <stop stop-color="#5729EA"/>
            <stop offset="1" stop-color="#4010BB"/>
        </linearGradient>
        <linearGradient id="i" x1="788.363" x2="328.851" y1="253.869" y2="415.78" gradientUnits="userSpaceOnUse">
            <stop stop-color="#759400"/>
            <stop offset="1" stop-color="#00E920"/>
        </linearGradient>
        <linearGradient id="j" x1="788.495" x2="328.972" y1="253.903" y2="415.791" gradientUnits="userSpaceOnUse">
            <stop stop-color="#3BE900"/>
            <stop offset="1" stop-color="#08571B"/>
        </linearGradient>
        <linearGradient id="k" x1="742.087" x2="542.87" y1="239.032" y2="654.955" gradientUnits="userSpaceOnUse">
            <stop stop-color="#116A00"/>
            <stop offset="1" stop-color="#1CFF00"/>
        </linearGradient>
        <linearGradient id="l" x1="836.795" x2="434.682" y1="334.241" y2="334.241" gradientUnits="userSpaceOnUse">
            <stop stop-color="#15BF00" stop-opacity="0"/>
            <stop offset="1" stop-color="#4CAA00"/>
        </linearGradient>
        <linearGradient id="m" x1="819.929" x2="484.165" y1="365.22" y2="483.531" gradientUnits="userSpaceOnUse">
            <stop stop-color="#1AE800" stop-opacity=".02"/>
            <stop offset=".07" stop-color="#27D900" stop-opacity=".25"/>
            <stop offset=".14" stop-color="#32CC00" stop-opacity=".45"/>
            <stop offset=".22" stop-color="#3CC100" stop-opacity=".62"/>
            <stop offset=".31" stop-color="#43B900" stop-opacity=".76"/>
            <stop offset=".41" stop-color="#49B200" stop-opacity=".87"/>
            <stop offset=".52" stop-color="#4DAD00" stop-opacity=".94"/>
            <stop offset=".67" stop-color="#50AA00" stop-opacity=".99"/>
            <stop offset="1" stop-color="#51AA00"/>
        </linearGradient>
        <linearGradient id="n" x1="457.186" x2="991.77" y1="357.959" y2="602.132" gradientUnits="userSpaceOnUse">
            <stop stop-color="#299400" stop-opacity=".93"/>
            <stop offset=".01" stop-color="#279601" stop-opacity=".9"/>
            <stop offset=".17" stop-color="#1BAF13" stop-opacity=".63"/>
            <stop offset=".32" stop-color="#11C421" stop-opacity=".4"/>
            <stop offset=".48" stop-color="#09D42C" stop-opacity=".22"/>
            <stop offset=".64" stop-color="#04DF34" stop-opacity=".1"/>
            <stop offset=".81" stop-color="#01E639" stop-opacity=".02"/>
            <stop offset="1" stop-color="#00E93B" stop-opacity="0"/>
        </linearGradient>
    </defs>
</svg>